<?xml version="1.0" encoding="UTF-8"?>
<svg id="_图层_2" data-name="图层 2" xmlns="http://www.w3.org/2000/svg" viewBox="0 0 125.1 172.99">
  <defs>
    <style>
      .cls-1 {
        stroke-width: 5px;
      }

      .cls-1, .cls-2 {
        fill: none;
        stroke: #fff;
        stroke-miterlimit: 10;
      }

      .cls-2 {
        stroke-width: 6px;
      }
    </style>
  </defs>
  <g id="logo">
    <g>
      <path class="cls-1" d="M34.63,54.5l2.84,2.79c.9,.88,2.32,.95,3.3,.15l3.72-3.03c.86-.7,2.08-.75,2.99-.11l.39,.27c.88,.62,2.06,.6,2.92-.05l.16-.12c.91-.69,2.18-.67,3.06,.05l3.76,3.06c.94,.76,2.29,.74,3.2-.06l2.59-2.28"/>
      <path class="cls-1" d="M69.39,86.97H24.22c-12,0-21.72,9.73-21.72,21.72v60.66l65.33,.64"/>
      <line class="cls-1" x1="21.01" y1="123.14" x2="21.01" y2="169.99"/>
      <polyline class="cls-1" points="92.88 80.63 78.2 80.63 78.2 89.31 78.2 139.73"/>
      <line class="cls-1" x1="92.88" y1="89.44" x2="78.2" y2="89.31"/>
      <line class="cls-1" x1="92.88" y1="98.5" x2="78.2" y2="98.5"/>
      <line class="cls-1" x1="92.88" y1="107.31" x2="78.2" y2="107.31"/>
      <line class="cls-1" x1="90.33" y1="119.16" x2="105.39" y2="158.99"/>
      <line class="cls-1" x1="104.87" y1="119.16" x2="90.33" y2="158.99"/>
      <path class="cls-1" d="M37.86,86.97c1.43,5.58,6.06,11.06,11.75,10.89,5.84-.17,11.2-5.05,12.13-10.89"/>
      <circle class="cls-1" cx="50.02" cy="101.45" r="2.27"/>
      <circle class="cls-2" cx="83.61" cy="161.37" r="8.62"/>
      <circle class="cls-2" cx="113.49" cy="161.37" r="8.62"/>
      <line class="cls-1" x1="66.63" y1="15.18" x2="66.63" y2="21.99"/>
      <path class="cls-1" d="M14.88,2.5h54.44c4.15,0,8.77,2.81,9.47,6.89v13.28H30.2c-1.13-.16-8.07-1.25-12.43-7.66-3.7-5.44-3.08-11.11-2.89-12.51Z"/>
      <path class="cls-1" d="M21.14,18.68l-.47,7.73c-.44-.02-1.72-.01-2.98,.85-1.03,.71-1.52,1.63-1.7,2.04-.26,1.51-.46,3.26-.51,5.19-.07,2.68,.18,5.04,.51,6.98,.05,.38,.23,1.54,1.19,2.55,1.03,1.09,2.27,1.31,2.64,1.36,.42,3.38,1.67,9.39,5.87,15.4,7.25,10.37,21.33,13.15,24.33,13.85,2.22-.11,14.43-1.02,23.33-13.76,4.02-5.75,5.11-11.62,5.45-15.06,.74-.22,2.14-.76,3.4-2.04,.86-.87,1.34-1.76,1.62-2.38,.1-1.63,.17-3.37,.17-5.19,0-1.92-.06-3.74-.17-5.45-.19-.65-.6-1.74-1.53-2.81-1.29-1.47-2.82-2.02-3.49-2.21v-3.06"/>
    </g>
  </g>
</svg>