<?xml version="1.0" encoding="UTF-8"?>
<svg id="_图层_2" data-name="图层 2" xmlns="http://www.w3.org/2000/svg" xmlns:xlink="http://www.w3.org/1999/xlink" viewBox="0 0 136.29 55.85">
  <defs>
    <style>
      .cls-1 {
        fill: url(#_未命名的渐变);
      }

      .cls-2 {
        fill: #fff;
      }

      .cls-3, .cls-4 {
        fill: none;
        stroke: #fff;
        stroke-miterlimit: 10;
      }

      .cls-5 {
        fill: url(#_未命名的渐变_30-2);
      }

      .cls-4 {
        stroke-width: .5px;
      }

      .cls-6 {
        fill: url(#_未命名的渐变_30);
      }
    </style>
    <linearGradient id="_未命名的渐变_30" data-name="未命名的渐变 30" x1="60.23" y1="34.57" x2="63.2" y2="34.57" gradientUnits="userSpaceOnUse">
      <stop offset="0" stop-color="#c84593"/>
      <stop offset="1" stop-color="#e0670d"/>
    </linearGradient>
    <linearGradient id="_未命名的渐变_30-2" data-name="未命名的渐变 30" x1="58.17" y1="36.65" x2="60.6" y2="36.65" xlink:href="#_未命名的渐变_30"/>
    <linearGradient id="_未命名的渐变" data-name="未命名的渐变" x1="62.3" y1="32.73" x2="65.93" y2="32.73" gradientUnits="userSpaceOnUse">
      <stop offset="0" stop-color="#fff"/>
      <stop offset="1" stop-color="#000"/>
    </linearGradient>
  </defs>
  <g id="_图层_3" data-name="图层 3">
    <path class="cls-3" d="M45.21,33.65l1.57,.76c.71,.34,1.54,.3,2.2-.12l.93-.59c1.15-.73,2.67-.46,3.52,.61l4.75,4.91"/>
    <polygon class="cls-4" points="19.85 .25 5.36 55.6 107.34 55.6 120.15 .25 19.85 .25"/>
    <g>
      <line class="cls-6" x1="63.2" y1="36.47" x2="60.23" y2="32.66"/>
      <polygon class="cls-2" points="62.81 36.78 60.23 32.66 63.6 36.16 62.81 36.78 62.81 36.78"/>
    </g>
    <g>
      <line class="cls-5" x1="60.6" y1="38.35" x2="58.17" y2="34.94"/>
      <polygon class="cls-2" points="60.19 38.64 58.17 34.94 61 38.06 60.19 38.64 60.19 38.64"/>
    </g>
    <path class="cls-2" d="M54.42,55.07l3.08-15.33,.04-.2s.2-.12,.2-.12c0,0,5.79-3.32,5.79-3.32l2.89-1.66c.55-.24,1-.75,.69-1.37-.12-.2-3.76-5.94-3.99-6.31-.25-.42-.36-.51-.72-.39,0,0-1.48,.77-1.48,.77l-2.96,1.54-.49,.25c-.14-.34-.62-1.51-.77-1.88-.2-.48-.5-1.11-.41-1.65,.04-.62,.41-1.15,.86-1.56,.68-.69,4.45-4.49,5.21-5.26C61.86,19.72,68.06,.01,67.93,.25c0,0-4.73,18.82-4.73,18.82-.02,.13-.04,.13-.13,.22-.79,.79-4.51,4.56-5.21,5.26-.27,.25-.56,.56-.58,.95-.07,.33,.23,.87,.34,1.18,0,0,.56,1.37,.56,1.37l-.69-.25,2.96-1.54,1.48-.77c.77-.44,1.74,.08,2.02,.75,.27,.41,3.91,6.17,4.03,6.39,.55,1.02-.04,2.27-1.08,2.69,0,0-2.89,1.66-2.89,1.66,0,0-5.79,3.32-5.79,3.32,0,0,.24-.32,.24-.32-.02,0-4,15.16-4.05,15.1h0Z"/>
    <path class="cls-2" d="M62.84,18.17c.87,.01,1.94-.03,2.81,.02,.97,.06,1.84,.99,2.51,1.61,0,0-.59-.06-.59-.06l2.6-1.5-.22,.6c-.07-.18-1.2-3.46-1.22-3.5,0,0,.35-.21,.35-.21l8.26-4.87,.49-.29,.23,.52s3.51,7.98,3.51,7.98c0,0-.47-.3-.47-.3,0,.12,55.46-.82,55.19-.45-.58,.02-54.95,1.44-55.5,1.46,0,0-.14-.31-.14-.31,0,0-3.51-7.98-3.51-7.98l.71,.23-8.26,4.87,.22-.6c.07,.2,1.2,3.44,1.22,3.5-.48,.28-2.8,1.61-3.28,1.89-.2-.17-1.07-.98-1.27-1.16-.45-.4-.97-.48-1.59-.45-.46,0-1.59,0-2.06,0,0,0,0-1,0-1h0Z"/>
    <polyline class="cls-3" points="67.61 32.46 75.29 29.25 70.43 18.67"/>
    <line class="cls-3" x1="48.25" y1="34.57" x2="58.17" y2="39.23"/>
    <path class="cls-2" d="M62.62,19.33l-2.84-.76-1.42-.38c-.85-.2-1.49,.11-2.09,.81-.8,.84-2.53,2.63-3.35,3.49-.13-.08-2.67-1.42-2.89-1.54,0,0,.8-.3,.8-.3l-6.15,15.8s-.25,.64-.25,.64l-.56-.4-8.62-6.11-.33-.23,.14-.37,2.47-6.6,.47,.68c-11.16-.06-26.99-.14-38-.42,10.94-.32,26.88-.48,38-.59,0,0,.73,0,.73,0l-.25,.69-2.44,6.61-.19-.6,8.64,6.08-.81,.24,6.09-15.83,.23-.6c.36,.2,2.66,1.43,3.08,1.65,0,0-.67,.1-.67,.1l2.06-2.1c.69-.64,1.46-1.72,2.4-2.04,.97-.45,2.23,.06,3.19,.32,0,0,2.83,.79,2.83,.79,0,0-.26,.96-.26,.96h0Z"/>
    <g>
      <line class="cls-1" x1="65.93" y1="35.29" x2="62.3" y2="30.17"/>
      <polygon class="cls-2" points="65.52 35.58 62.3 30.17 66.34 35 65.52 35.58 65.52 35.58"/>
    </g>
  </g>
</svg>